<mxfile host="jupyter-nb-briantao-40bu-2eedu-rhods-notebooks.apps.dev2023.i2ln.p1.openshiftapps.com" modified="2023-02-22T01:07:38.495Z" agent="5.0 (Windows NT 10.0; Win64; x64) AppleWebKit/537.36 (KHTML, like Gecko) Chrome/110.0.0.0 Safari/537.36" etag="MLNihF7cEwuz-hylHlwD" version="20.5.3" type="embed"><diagram id="nUKrod7_alQm-eAsrRQ0" name="Page-1"><mxGraphModel dx="1715" dy="418" grid="1" gridSize="10" guides="1" tooltips="1" connect="1" arrows="1" fold="1" page="1" pageScale="1" pageWidth="850" pageHeight="1100" math="0" shadow="0"><root><mxCell id="0"/><mxCell id="1" parent="0"/><mxCell id="BA3E9fmX5IiNXpG_RXwM-1" value="" style="shape=table;startSize=0;container=1;collapsible=0;childLayout=tableLayout;fontFamily=Courier New;" parent="1" vertex="1"><mxGeometry x="10" y="160" width="960" height="200" as="geometry"/></mxCell><mxCell id="BA3E9fmX5IiNXpG_RXwM-2" value="" style="shape=tableRow;horizontal=0;startSize=0;swimlaneHead=0;swimlaneBody=0;top=0;left=0;bottom=0;right=0;collapsible=0;dropTarget=0;fillColor=none;points=[[0,0.5],[1,0.5]];portConstraint=eastwest;" parent="BA3E9fmX5IiNXpG_RXwM-1" vertex="1"><mxGeometry width="960" height="40" as="geometry"/></mxCell><mxCell id="BA3E9fmX5IiNXpG_RXwM-3" value="'|'" style="shape=partialRectangle;html=1;whiteSpace=wrap;connectable=0;overflow=hidden;fillColor=none;top=0;left=0;bottom=0;right=0;pointerEvents=1;fontFamily=Courier New;" parent="BA3E9fmX5IiNXpG_RXwM-2" vertex="1"><mxGeometry width="60" height="40" as="geometry"><mxRectangle width="60" height="40" as="alternateBounds"/></mxGeometry></mxCell><mxCell id="BA3E9fmX5IiNXpG_RXwM-4" value="" style="shape=partialRectangle;html=1;whiteSpace=wrap;connectable=0;overflow=hidden;fillColor=none;top=0;left=0;bottom=0;right=0;pointerEvents=1;fontFamily=Courier New;" parent="BA3E9fmX5IiNXpG_RXwM-2" vertex="1"><mxGeometry x="60" width="60" height="40" as="geometry"><mxRectangle width="60" height="40" as="alternateBounds"/></mxGeometry></mxCell><mxCell id="BA3E9fmX5IiNXpG_RXwM-5" value="" style="shape=partialRectangle;html=1;whiteSpace=wrap;connectable=0;overflow=hidden;fillColor=none;top=0;left=0;bottom=0;right=0;pointerEvents=1;fontFamily=Courier New;" parent="BA3E9fmX5IiNXpG_RXwM-2" vertex="1"><mxGeometry x="120" width="60" height="40" as="geometry"><mxRectangle width="60" height="40" as="alternateBounds"/></mxGeometry></mxCell><mxCell id="BA3E9fmX5IiNXpG_RXwM-6" value="" style="shape=partialRectangle;html=1;whiteSpace=wrap;connectable=0;overflow=hidden;fillColor=none;top=0;left=0;bottom=0;right=0;pointerEvents=1;fontFamily=Courier New;" parent="BA3E9fmX5IiNXpG_RXwM-2" vertex="1"><mxGeometry x="180" width="60" height="40" as="geometry"><mxRectangle width="60" height="40" as="alternateBounds"/></mxGeometry></mxCell><mxCell id="BA3E9fmX5IiNXpG_RXwM-7" value="" style="shape=partialRectangle;html=1;whiteSpace=wrap;connectable=0;overflow=hidden;fillColor=none;top=0;left=0;bottom=0;right=0;pointerEvents=1;fontFamily=Courier New;" parent="BA3E9fmX5IiNXpG_RXwM-2" vertex="1"><mxGeometry x="240" width="60" height="40" as="geometry"><mxRectangle width="60" height="40" as="alternateBounds"/></mxGeometry></mxCell><mxCell id="BA3E9fmX5IiNXpG_RXwM-8" value="" style="shape=partialRectangle;html=1;whiteSpace=wrap;connectable=0;overflow=hidden;fillColor=none;top=0;left=0;bottom=0;right=0;pointerEvents=1;fontFamily=Courier New;" parent="BA3E9fmX5IiNXpG_RXwM-2" vertex="1"><mxGeometry x="300" width="60" height="40" as="geometry"><mxRectangle width="60" height="40" as="alternateBounds"/></mxGeometry></mxCell><mxCell id="BA3E9fmX5IiNXpG_RXwM-9" value="" style="shape=partialRectangle;html=1;whiteSpace=wrap;connectable=0;overflow=hidden;fillColor=none;top=0;left=0;bottom=0;right=0;pointerEvents=1;fontFamily=Courier New;" parent="BA3E9fmX5IiNXpG_RXwM-2" vertex="1"><mxGeometry x="360" width="60" height="40" as="geometry"><mxRectangle width="60" height="40" as="alternateBounds"/></mxGeometry></mxCell><mxCell id="BA3E9fmX5IiNXpG_RXwM-10" value="" style="shape=partialRectangle;html=1;whiteSpace=wrap;connectable=0;overflow=hidden;fillColor=none;top=0;left=0;bottom=0;right=0;pointerEvents=1;fontFamily=Courier New;" parent="BA3E9fmX5IiNXpG_RXwM-2" vertex="1"><mxGeometry x="420" width="60" height="40" as="geometry"><mxRectangle width="60" height="40" as="alternateBounds"/></mxGeometry></mxCell><mxCell id="BA3E9fmX5IiNXpG_RXwM-11" value="ff" style="shape=partialRectangle;html=1;whiteSpace=wrap;connectable=0;overflow=hidden;fillColor=none;top=0;left=0;bottom=0;right=0;pointerEvents=1;fontFamily=Courier New;" parent="BA3E9fmX5IiNXpG_RXwM-2" vertex="1"><mxGeometry x="480" width="60" height="40" as="geometry"><mxRectangle width="60" height="40" as="alternateBounds"/></mxGeometry></mxCell><mxCell id="BA3E9fmX5IiNXpG_RXwM-12" value="ff" style="shape=partialRectangle;html=1;whiteSpace=wrap;connectable=0;overflow=hidden;fillColor=none;top=0;left=0;bottom=0;right=0;pointerEvents=1;fontFamily=Courier New;" parent="BA3E9fmX5IiNXpG_RXwM-2" vertex="1"><mxGeometry x="540" width="60" height="40" as="geometry"><mxRectangle width="60" height="40" as="alternateBounds"/></mxGeometry></mxCell><mxCell id="BA3E9fmX5IiNXpG_RXwM-13" value="ff" style="shape=partialRectangle;html=1;whiteSpace=wrap;connectable=0;overflow=hidden;fillColor=none;top=0;left=0;bottom=0;right=0;pointerEvents=1;fontFamily=Courier New;" parent="BA3E9fmX5IiNXpG_RXwM-2" vertex="1"><mxGeometry x="600" width="60" height="40" as="geometry"><mxRectangle width="60" height="40" as="alternateBounds"/></mxGeometry></mxCell><mxCell id="BA3E9fmX5IiNXpG_RXwM-14" value="ff" style="shape=partialRectangle;html=1;whiteSpace=wrap;connectable=0;overflow=hidden;fillColor=none;top=0;left=0;bottom=0;right=0;pointerEvents=1;fontFamily=Courier New;" parent="BA3E9fmX5IiNXpG_RXwM-2" vertex="1"><mxGeometry x="660" width="60" height="40" as="geometry"><mxRectangle width="60" height="40" as="alternateBounds"/></mxGeometry></mxCell><mxCell id="BA3E9fmX5IiNXpG_RXwM-15" value="ff" style="shape=partialRectangle;html=1;whiteSpace=wrap;connectable=0;overflow=hidden;fillColor=none;top=0;left=0;bottom=0;right=0;pointerEvents=1;fontFamily=Courier New;" parent="BA3E9fmX5IiNXpG_RXwM-2" vertex="1"><mxGeometry x="720" width="60" height="40" as="geometry"><mxRectangle width="60" height="40" as="alternateBounds"/></mxGeometry></mxCell><mxCell id="BA3E9fmX5IiNXpG_RXwM-16" value="ff" style="shape=partialRectangle;html=1;whiteSpace=wrap;connectable=0;overflow=hidden;fillColor=none;top=0;left=0;bottom=0;right=0;pointerEvents=1;fontFamily=Courier New;" parent="BA3E9fmX5IiNXpG_RXwM-2" vertex="1"><mxGeometry x="780" width="60" height="40" as="geometry"><mxRectangle width="60" height="40" as="alternateBounds"/></mxGeometry></mxCell><mxCell id="BA3E9fmX5IiNXpG_RXwM-17" value="ff" style="shape=partialRectangle;html=1;whiteSpace=wrap;connectable=0;overflow=hidden;fillColor=none;top=0;left=0;bottom=0;right=0;pointerEvents=1;fontFamily=Courier New;" parent="BA3E9fmX5IiNXpG_RXwM-2" vertex="1"><mxGeometry x="840" width="60" height="40" as="geometry"><mxRectangle width="60" height="40" as="alternateBounds"/></mxGeometry></mxCell><mxCell id="BA3E9fmX5IiNXpG_RXwM-18" value="ff" style="shape=partialRectangle;html=1;whiteSpace=wrap;connectable=0;overflow=hidden;fillColor=none;top=0;left=0;bottom=0;right=0;pointerEvents=1;fontFamily=Courier New;" parent="BA3E9fmX5IiNXpG_RXwM-2" vertex="1"><mxGeometry x="900" width="60" height="40" as="geometry"><mxRectangle width="60" height="40" as="alternateBounds"/></mxGeometry></mxCell><mxCell id="BA3E9fmX5IiNXpG_RXwM-19" value="" style="shape=tableRow;horizontal=0;startSize=0;swimlaneHead=0;swimlaneBody=0;top=0;left=0;bottom=0;right=0;collapsible=0;dropTarget=0;fillColor=none;points=[[0,0.5],[1,0.5]];portConstraint=eastwest;" parent="BA3E9fmX5IiNXpG_RXwM-1" vertex="1"><mxGeometry y="40" width="960" height="40" as="geometry"/></mxCell><mxCell id="BA3E9fmX5IiNXpG_RXwM-20" value="'&amp;amp;'" style="shape=partialRectangle;html=1;whiteSpace=wrap;connectable=0;overflow=hidden;fillColor=none;top=0;left=0;bottom=0;right=0;pointerEvents=1;fontFamily=Courier New;" parent="BA3E9fmX5IiNXpG_RXwM-19" vertex="1"><mxGeometry width="60" height="40" as="geometry"><mxRectangle width="60" height="40" as="alternateBounds"/></mxGeometry></mxCell><mxCell id="BA3E9fmX5IiNXpG_RXwM-21" value="" style="shape=partialRectangle;html=1;whiteSpace=wrap;connectable=0;overflow=hidden;fillColor=none;top=0;left=0;bottom=0;right=0;pointerEvents=1;fontFamily=Courier New;" parent="BA3E9fmX5IiNXpG_RXwM-19" vertex="1"><mxGeometry x="60" width="60" height="40" as="geometry"><mxRectangle width="60" height="40" as="alternateBounds"/></mxGeometry></mxCell><mxCell id="BA3E9fmX5IiNXpG_RXwM-22" value="" style="shape=partialRectangle;html=1;whiteSpace=wrap;connectable=0;overflow=hidden;fillColor=none;top=0;left=0;bottom=0;right=0;pointerEvents=1;fontFamily=Courier New;" parent="BA3E9fmX5IiNXpG_RXwM-19" vertex="1"><mxGeometry x="120" width="60" height="40" as="geometry"><mxRectangle width="60" height="40" as="alternateBounds"/></mxGeometry></mxCell><mxCell id="BA3E9fmX5IiNXpG_RXwM-23" value="" style="shape=partialRectangle;html=1;whiteSpace=wrap;connectable=0;overflow=hidden;fillColor=none;top=0;left=0;bottom=0;right=0;pointerEvents=1;fontFamily=Courier New;" parent="BA3E9fmX5IiNXpG_RXwM-19" vertex="1"><mxGeometry x="180" width="60" height="40" as="geometry"><mxRectangle width="60" height="40" as="alternateBounds"/></mxGeometry></mxCell><mxCell id="BA3E9fmX5IiNXpG_RXwM-24" value="" style="shape=partialRectangle;html=1;whiteSpace=wrap;connectable=0;overflow=hidden;fillColor=none;top=0;left=0;bottom=0;right=0;pointerEvents=1;fontFamily=Courier New;" parent="BA3E9fmX5IiNXpG_RXwM-19" vertex="1"><mxGeometry x="240" width="60" height="40" as="geometry"><mxRectangle width="60" height="40" as="alternateBounds"/></mxGeometry></mxCell><mxCell id="BA3E9fmX5IiNXpG_RXwM-25" value="" style="shape=partialRectangle;html=1;whiteSpace=wrap;connectable=0;overflow=hidden;fillColor=none;top=0;left=0;bottom=0;right=0;pointerEvents=1;fontFamily=Courier New;" parent="BA3E9fmX5IiNXpG_RXwM-19" vertex="1"><mxGeometry x="300" width="60" height="40" as="geometry"><mxRectangle width="60" height="40" as="alternateBounds"/></mxGeometry></mxCell><mxCell id="BA3E9fmX5IiNXpG_RXwM-26" value="" style="shape=partialRectangle;html=1;whiteSpace=wrap;connectable=0;overflow=hidden;fillColor=none;top=0;left=0;bottom=0;right=0;pointerEvents=1;fontFamily=Courier New;" parent="BA3E9fmX5IiNXpG_RXwM-19" vertex="1"><mxGeometry x="360" width="60" height="40" as="geometry"><mxRectangle width="60" height="40" as="alternateBounds"/></mxGeometry></mxCell><mxCell id="BA3E9fmX5IiNXpG_RXwM-27" value="" style="shape=partialRectangle;html=1;whiteSpace=wrap;connectable=0;overflow=hidden;fillColor=none;top=0;left=0;bottom=0;right=0;pointerEvents=1;fontFamily=Courier New;" parent="BA3E9fmX5IiNXpG_RXwM-19" vertex="1"><mxGeometry x="420" width="60" height="40" as="geometry"><mxRectangle width="60" height="40" as="alternateBounds"/></mxGeometry></mxCell><mxCell id="BA3E9fmX5IiNXpG_RXwM-28" value="0f" style="shape=partialRectangle;html=1;whiteSpace=wrap;connectable=0;overflow=hidden;fillColor=none;top=0;left=0;bottom=0;right=0;pointerEvents=1;fontFamily=Courier New;" parent="BA3E9fmX5IiNXpG_RXwM-19" vertex="1"><mxGeometry x="480" width="60" height="40" as="geometry"><mxRectangle width="60" height="40" as="alternateBounds"/></mxGeometry></mxCell><mxCell id="BA3E9fmX5IiNXpG_RXwM-29" value="00" style="shape=partialRectangle;html=1;whiteSpace=wrap;connectable=0;overflow=hidden;fillColor=none;top=0;left=0;bottom=0;right=0;pointerEvents=1;fontFamily=Courier New;" parent="BA3E9fmX5IiNXpG_RXwM-19" vertex="1"><mxGeometry x="540" width="60" height="40" as="geometry"><mxRectangle width="60" height="40" as="alternateBounds"/></mxGeometry></mxCell><mxCell id="BA3E9fmX5IiNXpG_RXwM-30" value="00" style="shape=partialRectangle;html=1;whiteSpace=wrap;connectable=0;overflow=hidden;fillColor=none;top=0;left=0;bottom=0;right=0;pointerEvents=1;fontFamily=Courier New;" parent="BA3E9fmX5IiNXpG_RXwM-19" vertex="1"><mxGeometry x="600" width="60" height="40" as="geometry"><mxRectangle width="60" height="40" as="alternateBounds"/></mxGeometry></mxCell><mxCell id="BA3E9fmX5IiNXpG_RXwM-31" value="00" style="shape=partialRectangle;html=1;whiteSpace=wrap;connectable=0;overflow=hidden;fillColor=none;top=0;left=0;bottom=0;right=0;pointerEvents=1;fontFamily=Courier New;" parent="BA3E9fmX5IiNXpG_RXwM-19" vertex="1"><mxGeometry x="660" width="60" height="40" as="geometry"><mxRectangle width="60" height="40" as="alternateBounds"/></mxGeometry></mxCell><mxCell id="BA3E9fmX5IiNXpG_RXwM-32" value="00" style="shape=partialRectangle;html=1;whiteSpace=wrap;connectable=0;overflow=hidden;fillColor=none;top=0;left=0;bottom=0;right=0;pointerEvents=1;fontFamily=Courier New;" parent="BA3E9fmX5IiNXpG_RXwM-19" vertex="1"><mxGeometry x="720" width="60" height="40" as="geometry"><mxRectangle width="60" height="40" as="alternateBounds"/></mxGeometry></mxCell><mxCell id="BA3E9fmX5IiNXpG_RXwM-33" value="00" style="shape=partialRectangle;html=1;whiteSpace=wrap;connectable=0;overflow=hidden;fillColor=none;top=0;left=0;bottom=0;right=0;pointerEvents=1;fontFamily=Courier New;" parent="BA3E9fmX5IiNXpG_RXwM-19" vertex="1"><mxGeometry x="780" width="60" height="40" as="geometry"><mxRectangle width="60" height="40" as="alternateBounds"/></mxGeometry></mxCell><mxCell id="BA3E9fmX5IiNXpG_RXwM-34" value="00" style="shape=partialRectangle;html=1;whiteSpace=wrap;connectable=0;overflow=hidden;fillColor=none;top=0;left=0;bottom=0;right=0;pointerEvents=1;fontFamily=Courier New;" parent="BA3E9fmX5IiNXpG_RXwM-19" vertex="1"><mxGeometry x="840" width="60" height="40" as="geometry"><mxRectangle width="60" height="40" as="alternateBounds"/></mxGeometry></mxCell><mxCell id="BA3E9fmX5IiNXpG_RXwM-35" value="00" style="shape=partialRectangle;html=1;whiteSpace=wrap;connectable=0;overflow=hidden;fillColor=none;top=0;left=0;bottom=0;right=0;pointerEvents=1;fontFamily=Courier New;" parent="BA3E9fmX5IiNXpG_RXwM-19" vertex="1"><mxGeometry x="900" width="60" height="40" as="geometry"><mxRectangle width="60" height="40" as="alternateBounds"/></mxGeometry></mxCell><mxCell id="BA3E9fmX5IiNXpG_RXwM-36" value="" style="shape=tableRow;horizontal=0;startSize=0;swimlaneHead=0;swimlaneBody=0;top=0;left=0;bottom=0;right=0;collapsible=0;dropTarget=0;fillColor=none;points=[[0,0.5],[1,0.5]];portConstraint=eastwest;" parent="BA3E9fmX5IiNXpG_RXwM-1" vertex="1"><mxGeometry y="80" width="960" height="40" as="geometry"/></mxCell><mxCell id="BA3E9fmX5IiNXpG_RXwM-37" value="'S'" style="shape=partialRectangle;html=1;whiteSpace=wrap;connectable=0;overflow=hidden;fillColor=none;top=0;left=0;bottom=0;right=0;pointerEvents=1;fontFamily=Courier New;" parent="BA3E9fmX5IiNXpG_RXwM-36" vertex="1"><mxGeometry width="60" height="40" as="geometry"><mxRectangle width="60" height="40" as="alternateBounds"/></mxGeometry></mxCell><mxCell id="BA3E9fmX5IiNXpG_RXwM-38" value="" style="shape=partialRectangle;html=1;whiteSpace=wrap;connectable=0;overflow=hidden;fillColor=none;top=0;left=0;bottom=0;right=0;pointerEvents=1;fontFamily=Courier New;" parent="BA3E9fmX5IiNXpG_RXwM-36" vertex="1"><mxGeometry x="60" width="60" height="40" as="geometry"><mxRectangle width="60" height="40" as="alternateBounds"/></mxGeometry></mxCell><mxCell id="BA3E9fmX5IiNXpG_RXwM-39" value="" style="shape=partialRectangle;html=1;whiteSpace=wrap;connectable=0;overflow=hidden;fillColor=none;top=0;left=0;bottom=0;right=0;pointerEvents=1;fontFamily=Courier New;" parent="BA3E9fmX5IiNXpG_RXwM-36" vertex="1"><mxGeometry x="120" width="60" height="40" as="geometry"><mxRectangle width="60" height="40" as="alternateBounds"/></mxGeometry></mxCell><mxCell id="BA3E9fmX5IiNXpG_RXwM-40" value="" style="shape=partialRectangle;html=1;whiteSpace=wrap;connectable=0;overflow=hidden;fillColor=none;top=0;left=0;bottom=0;right=0;pointerEvents=1;fontFamily=Courier New;" parent="BA3E9fmX5IiNXpG_RXwM-36" vertex="1"><mxGeometry x="180" width="60" height="40" as="geometry"><mxRectangle width="60" height="40" as="alternateBounds"/></mxGeometry></mxCell><mxCell id="BA3E9fmX5IiNXpG_RXwM-41" value="" style="shape=partialRectangle;html=1;whiteSpace=wrap;connectable=0;overflow=hidden;fillColor=none;top=0;left=0;bottom=0;right=0;pointerEvents=1;fontFamily=Courier New;" parent="BA3E9fmX5IiNXpG_RXwM-36" vertex="1"><mxGeometry x="240" width="60" height="40" as="geometry"><mxRectangle width="60" height="40" as="alternateBounds"/></mxGeometry></mxCell><mxCell id="BA3E9fmX5IiNXpG_RXwM-42" value="" style="shape=partialRectangle;html=1;whiteSpace=wrap;connectable=0;overflow=hidden;fillColor=none;top=0;left=0;bottom=0;right=0;pointerEvents=1;fontFamily=Courier New;" parent="BA3E9fmX5IiNXpG_RXwM-36" vertex="1"><mxGeometry x="300" width="60" height="40" as="geometry"><mxRectangle width="60" height="40" as="alternateBounds"/></mxGeometry></mxCell><mxCell id="BA3E9fmX5IiNXpG_RXwM-43" value="" style="shape=partialRectangle;html=1;whiteSpace=wrap;connectable=0;overflow=hidden;fillColor=none;top=0;left=0;bottom=0;right=0;pointerEvents=1;fontFamily=Courier New;" parent="BA3E9fmX5IiNXpG_RXwM-36" vertex="1"><mxGeometry x="360" width="60" height="40" as="geometry"><mxRectangle width="60" height="40" as="alternateBounds"/></mxGeometry></mxCell><mxCell id="BA3E9fmX5IiNXpG_RXwM-44" value="" style="shape=partialRectangle;html=1;whiteSpace=wrap;connectable=0;overflow=hidden;fillColor=none;top=0;left=0;bottom=0;right=0;pointerEvents=1;fontFamily=Courier New;" parent="BA3E9fmX5IiNXpG_RXwM-36" vertex="1"><mxGeometry x="420" width="60" height="40" as="geometry"><mxRectangle width="60" height="40" as="alternateBounds"/></mxGeometry></mxCell><mxCell id="BA3E9fmX5IiNXpG_RXwM-45" value="02" style="shape=partialRectangle;html=1;whiteSpace=wrap;connectable=0;overflow=hidden;fillColor=none;top=0;left=0;bottom=0;right=0;pointerEvents=1;fontFamily=Courier New;" parent="BA3E9fmX5IiNXpG_RXwM-36" vertex="1"><mxGeometry x="480" width="60" height="40" as="geometry"><mxRectangle width="60" height="40" as="alternateBounds"/></mxGeometry></mxCell><mxCell id="BA3E9fmX5IiNXpG_RXwM-46" value="00" style="shape=partialRectangle;html=1;whiteSpace=wrap;connectable=0;overflow=hidden;fillColor=none;top=0;left=0;bottom=0;right=0;pointerEvents=1;fontFamily=Courier New;" parent="BA3E9fmX5IiNXpG_RXwM-36" vertex="1"><mxGeometry x="540" width="60" height="40" as="geometry"><mxRectangle width="60" height="40" as="alternateBounds"/></mxGeometry></mxCell><mxCell id="BA3E9fmX5IiNXpG_RXwM-47" value="00" style="shape=partialRectangle;html=1;whiteSpace=wrap;connectable=0;overflow=hidden;fillColor=none;top=0;left=0;bottom=0;right=0;pointerEvents=1;fontFamily=Courier New;" parent="BA3E9fmX5IiNXpG_RXwM-36" vertex="1"><mxGeometry x="600" width="60" height="40" as="geometry"><mxRectangle width="60" height="40" as="alternateBounds"/></mxGeometry></mxCell><mxCell id="BA3E9fmX5IiNXpG_RXwM-48" value="00" style="shape=partialRectangle;html=1;whiteSpace=wrap;connectable=0;overflow=hidden;fillColor=none;top=0;left=0;bottom=0;right=0;pointerEvents=1;fontFamily=Courier New;" parent="BA3E9fmX5IiNXpG_RXwM-36" vertex="1"><mxGeometry x="660" width="60" height="40" as="geometry"><mxRectangle width="60" height="40" as="alternateBounds"/></mxGeometry></mxCell><mxCell id="BA3E9fmX5IiNXpG_RXwM-49" value="00" style="shape=partialRectangle;html=1;whiteSpace=wrap;connectable=0;overflow=hidden;fillColor=none;top=0;left=0;bottom=0;right=0;pointerEvents=1;fontFamily=Courier New;" parent="BA3E9fmX5IiNXpG_RXwM-36" vertex="1"><mxGeometry x="720" width="60" height="40" as="geometry"><mxRectangle width="60" height="40" as="alternateBounds"/></mxGeometry></mxCell><mxCell id="BA3E9fmX5IiNXpG_RXwM-50" value="00" style="shape=partialRectangle;html=1;whiteSpace=wrap;connectable=0;overflow=hidden;fillColor=none;top=0;left=0;bottom=0;right=0;pointerEvents=1;fontFamily=Courier New;" parent="BA3E9fmX5IiNXpG_RXwM-36" vertex="1"><mxGeometry x="780" width="60" height="40" as="geometry"><mxRectangle width="60" height="40" as="alternateBounds"/></mxGeometry></mxCell><mxCell id="BA3E9fmX5IiNXpG_RXwM-51" value="00" style="shape=partialRectangle;html=1;whiteSpace=wrap;connectable=0;overflow=hidden;fillColor=none;top=0;left=0;bottom=0;right=0;pointerEvents=1;fontFamily=Courier New;" parent="BA3E9fmX5IiNXpG_RXwM-36" vertex="1"><mxGeometry x="840" width="60" height="40" as="geometry"><mxRectangle width="60" height="40" as="alternateBounds"/></mxGeometry></mxCell><mxCell id="BA3E9fmX5IiNXpG_RXwM-52" value="00" style="shape=partialRectangle;html=1;whiteSpace=wrap;connectable=0;overflow=hidden;fillColor=none;top=0;left=0;bottom=0;right=0;pointerEvents=1;fontFamily=Courier New;" parent="BA3E9fmX5IiNXpG_RXwM-36" vertex="1"><mxGeometry x="900" width="60" height="40" as="geometry"><mxRectangle width="60" height="40" as="alternateBounds"/></mxGeometry></mxCell><mxCell id="BA3E9fmX5IiNXpG_RXwM-53" value="" style="shape=tableRow;horizontal=0;startSize=0;swimlaneHead=0;swimlaneBody=0;top=0;left=0;bottom=0;right=0;collapsible=0;dropTarget=0;fillColor=none;points=[[0,0.5],[1,0.5]];portConstraint=eastwest;" parent="BA3E9fmX5IiNXpG_RXwM-1" vertex="1"><mxGeometry y="120" width="960" height="40" as="geometry"/></mxCell><mxCell id="BA3E9fmX5IiNXpG_RXwM-54" value="'S'" style="shape=partialRectangle;html=1;whiteSpace=wrap;connectable=0;overflow=hidden;fillColor=none;top=0;left=0;bottom=0;right=0;pointerEvents=1;fontFamily=Courier New;" parent="BA3E9fmX5IiNXpG_RXwM-53" vertex="1"><mxGeometry width="60" height="40" as="geometry"><mxRectangle width="60" height="40" as="alternateBounds"/></mxGeometry></mxCell><mxCell id="BA3E9fmX5IiNXpG_RXwM-55" value="" style="shape=partialRectangle;html=1;whiteSpace=wrap;connectable=0;overflow=hidden;fillColor=none;top=0;left=0;bottom=0;right=0;pointerEvents=1;fontFamily=Courier New;" parent="BA3E9fmX5IiNXpG_RXwM-53" vertex="1"><mxGeometry x="60" width="60" height="40" as="geometry"><mxRectangle width="60" height="40" as="alternateBounds"/></mxGeometry></mxCell><mxCell id="BA3E9fmX5IiNXpG_RXwM-56" value="" style="shape=partialRectangle;html=1;whiteSpace=wrap;connectable=0;overflow=hidden;fillColor=none;top=0;left=0;bottom=0;right=0;pointerEvents=1;fontFamily=Courier New;" parent="BA3E9fmX5IiNXpG_RXwM-53" vertex="1"><mxGeometry x="120" width="60" height="40" as="geometry"><mxRectangle width="60" height="40" as="alternateBounds"/></mxGeometry></mxCell><mxCell id="BA3E9fmX5IiNXpG_RXwM-57" value="" style="shape=partialRectangle;html=1;whiteSpace=wrap;connectable=0;overflow=hidden;fillColor=none;top=0;left=0;bottom=0;right=0;pointerEvents=1;fontFamily=Courier New;" parent="BA3E9fmX5IiNXpG_RXwM-53" vertex="1"><mxGeometry x="180" width="60" height="40" as="geometry"><mxRectangle width="60" height="40" as="alternateBounds"/></mxGeometry></mxCell><mxCell id="BA3E9fmX5IiNXpG_RXwM-58" value="" style="shape=partialRectangle;html=1;whiteSpace=wrap;connectable=0;overflow=hidden;fillColor=none;top=0;left=0;bottom=0;right=0;pointerEvents=1;fontFamily=Courier New;" parent="BA3E9fmX5IiNXpG_RXwM-53" vertex="1"><mxGeometry x="240" width="60" height="40" as="geometry"><mxRectangle width="60" height="40" as="alternateBounds"/></mxGeometry></mxCell><mxCell id="BA3E9fmX5IiNXpG_RXwM-59" value="" style="shape=partialRectangle;html=1;whiteSpace=wrap;connectable=0;overflow=hidden;fillColor=none;top=0;left=0;bottom=0;right=0;pointerEvents=1;fontFamily=Courier New;" parent="BA3E9fmX5IiNXpG_RXwM-53" vertex="1"><mxGeometry x="300" width="60" height="40" as="geometry"><mxRectangle width="60" height="40" as="alternateBounds"/></mxGeometry></mxCell><mxCell id="BA3E9fmX5IiNXpG_RXwM-60" value="" style="shape=partialRectangle;html=1;whiteSpace=wrap;connectable=0;overflow=hidden;fillColor=none;top=0;left=0;bottom=0;right=0;pointerEvents=1;fontFamily=Courier New;" parent="BA3E9fmX5IiNXpG_RXwM-53" vertex="1"><mxGeometry x="360" width="60" height="40" as="geometry"><mxRectangle width="60" height="40" as="alternateBounds"/></mxGeometry></mxCell><mxCell id="BA3E9fmX5IiNXpG_RXwM-61" value="" style="shape=partialRectangle;html=1;whiteSpace=wrap;connectable=0;overflow=hidden;fillColor=none;top=0;left=0;bottom=0;right=0;pointerEvents=1;fontFamily=Courier New;" parent="BA3E9fmX5IiNXpG_RXwM-53" vertex="1"><mxGeometry x="420" width="60" height="40" as="geometry"><mxRectangle width="60" height="40" as="alternateBounds"/></mxGeometry></mxCell><mxCell id="BA3E9fmX5IiNXpG_RXwM-62" value="fd" style="shape=partialRectangle;html=1;whiteSpace=wrap;connectable=0;overflow=hidden;fillColor=none;top=0;left=0;bottom=0;right=0;pointerEvents=1;fontFamily=Courier New;" parent="BA3E9fmX5IiNXpG_RXwM-53" vertex="1"><mxGeometry x="480" width="60" height="40" as="geometry"><mxRectangle width="60" height="40" as="alternateBounds"/></mxGeometry></mxCell><mxCell id="BA3E9fmX5IiNXpG_RXwM-63" value="ff" style="shape=partialRectangle;html=1;whiteSpace=wrap;connectable=0;overflow=hidden;fillColor=none;top=0;left=0;bottom=0;right=0;pointerEvents=1;fontFamily=Courier New;" parent="BA3E9fmX5IiNXpG_RXwM-53" vertex="1"><mxGeometry x="540" width="60" height="40" as="geometry"><mxRectangle width="60" height="40" as="alternateBounds"/></mxGeometry></mxCell><mxCell id="BA3E9fmX5IiNXpG_RXwM-64" value="ff" style="shape=partialRectangle;html=1;whiteSpace=wrap;connectable=0;overflow=hidden;fillColor=none;top=0;left=0;bottom=0;right=0;pointerEvents=1;fontFamily=Courier New;" parent="BA3E9fmX5IiNXpG_RXwM-53" vertex="1"><mxGeometry x="600" width="60" height="40" as="geometry"><mxRectangle width="60" height="40" as="alternateBounds"/></mxGeometry></mxCell><mxCell id="BA3E9fmX5IiNXpG_RXwM-65" value="ff" style="shape=partialRectangle;html=1;whiteSpace=wrap;connectable=0;overflow=hidden;fillColor=none;top=0;left=0;bottom=0;right=0;pointerEvents=1;fontFamily=Courier New;" parent="BA3E9fmX5IiNXpG_RXwM-53" vertex="1"><mxGeometry x="660" width="60" height="40" as="geometry"><mxRectangle width="60" height="40" as="alternateBounds"/></mxGeometry></mxCell><mxCell id="BA3E9fmX5IiNXpG_RXwM-66" value="ff" style="shape=partialRectangle;html=1;whiteSpace=wrap;connectable=0;overflow=hidden;fillColor=none;top=0;left=0;bottom=0;right=0;pointerEvents=1;fontFamily=Courier New;" parent="BA3E9fmX5IiNXpG_RXwM-53" vertex="1"><mxGeometry x="720" width="60" height="40" as="geometry"><mxRectangle width="60" height="40" as="alternateBounds"/></mxGeometry></mxCell><mxCell id="BA3E9fmX5IiNXpG_RXwM-67" value="ff" style="shape=partialRectangle;html=1;whiteSpace=wrap;connectable=0;overflow=hidden;fillColor=none;top=0;left=0;bottom=0;right=0;pointerEvents=1;fontFamily=Courier New;" parent="BA3E9fmX5IiNXpG_RXwM-53" vertex="1"><mxGeometry x="780" width="60" height="40" as="geometry"><mxRectangle width="60" height="40" as="alternateBounds"/></mxGeometry></mxCell><mxCell id="BA3E9fmX5IiNXpG_RXwM-68" value="ff" style="shape=partialRectangle;html=1;whiteSpace=wrap;connectable=0;overflow=hidden;fillColor=none;top=0;left=0;bottom=0;right=0;pointerEvents=1;fontFamily=Courier New;" parent="BA3E9fmX5IiNXpG_RXwM-53" vertex="1"><mxGeometry x="840" width="60" height="40" as="geometry"><mxRectangle width="60" height="40" as="alternateBounds"/></mxGeometry></mxCell><mxCell id="BA3E9fmX5IiNXpG_RXwM-69" value="ff" style="shape=partialRectangle;html=1;whiteSpace=wrap;connectable=0;overflow=hidden;fillColor=none;top=0;left=0;bottom=0;right=0;pointerEvents=1;fontFamily=Courier New;" parent="BA3E9fmX5IiNXpG_RXwM-53" vertex="1"><mxGeometry x="900" width="60" height="40" as="geometry"><mxRectangle width="60" height="40" as="alternateBounds"/></mxGeometry></mxCell><mxCell id="BA3E9fmX5IiNXpG_RXwM-70" value="" style="shape=tableRow;horizontal=0;startSize=0;swimlaneHead=0;swimlaneBody=0;top=0;left=0;bottom=0;right=0;collapsible=0;dropTarget=0;fillColor=none;points=[[0,0.5],[1,0.5]];portConstraint=eastwest;" parent="BA3E9fmX5IiNXpG_RXwM-1" vertex="1"><mxGeometry y="160" width="960" height="40" as="geometry"/></mxCell><mxCell id="BA3E9fmX5IiNXpG_RXwM-71" value="0" style="shape=partialRectangle;html=1;whiteSpace=wrap;connectable=0;overflow=hidden;fillColor=none;top=0;left=0;bottom=0;right=0;pointerEvents=1;fontFamily=Courier New;" parent="BA3E9fmX5IiNXpG_RXwM-70" vertex="1"><mxGeometry width="60" height="40" as="geometry"><mxRectangle width="60" height="40" as="alternateBounds"/></mxGeometry></mxCell><mxCell id="BA3E9fmX5IiNXpG_RXwM-72" value="" style="shape=partialRectangle;html=1;whiteSpace=wrap;connectable=0;overflow=hidden;fillColor=none;top=0;left=0;bottom=0;right=0;pointerEvents=1;fontFamily=Courier New;" parent="BA3E9fmX5IiNXpG_RXwM-70" vertex="1"><mxGeometry x="60" width="60" height="40" as="geometry"><mxRectangle width="60" height="40" as="alternateBounds"/></mxGeometry></mxCell><mxCell id="BA3E9fmX5IiNXpG_RXwM-73" value="" style="shape=partialRectangle;html=1;whiteSpace=wrap;connectable=0;overflow=hidden;fillColor=none;top=0;left=0;bottom=0;right=0;pointerEvents=1;fontFamily=Courier New;" parent="BA3E9fmX5IiNXpG_RXwM-70" vertex="1"><mxGeometry x="120" width="60" height="40" as="geometry"><mxRectangle width="60" height="40" as="alternateBounds"/></mxGeometry></mxCell><mxCell id="BA3E9fmX5IiNXpG_RXwM-74" value="" style="shape=partialRectangle;html=1;whiteSpace=wrap;connectable=0;overflow=hidden;fillColor=none;top=0;left=0;bottom=0;right=0;pointerEvents=1;fontFamily=Courier New;" parent="BA3E9fmX5IiNXpG_RXwM-70" vertex="1"><mxGeometry x="180" width="60" height="40" as="geometry"><mxRectangle width="60" height="40" as="alternateBounds"/></mxGeometry></mxCell><mxCell id="BA3E9fmX5IiNXpG_RXwM-75" value="" style="shape=partialRectangle;html=1;whiteSpace=wrap;connectable=0;overflow=hidden;fillColor=none;top=0;left=0;bottom=0;right=0;pointerEvents=1;fontFamily=Courier New;" parent="BA3E9fmX5IiNXpG_RXwM-70" vertex="1"><mxGeometry x="240" width="60" height="40" as="geometry"><mxRectangle width="60" height="40" as="alternateBounds"/></mxGeometry></mxCell><mxCell id="BA3E9fmX5IiNXpG_RXwM-76" value="" style="shape=partialRectangle;html=1;whiteSpace=wrap;connectable=0;overflow=hidden;fillColor=none;top=0;left=0;bottom=0;right=0;pointerEvents=1;fontFamily=Courier New;" parent="BA3E9fmX5IiNXpG_RXwM-70" vertex="1"><mxGeometry x="300" width="60" height="40" as="geometry"><mxRectangle width="60" height="40" as="alternateBounds"/></mxGeometry></mxCell><mxCell id="BA3E9fmX5IiNXpG_RXwM-77" value="" style="shape=partialRectangle;html=1;whiteSpace=wrap;connectable=0;overflow=hidden;fillColor=none;top=0;left=0;bottom=0;right=0;pointerEvents=1;fontFamily=Courier New;" parent="BA3E9fmX5IiNXpG_RXwM-70" vertex="1"><mxGeometry x="360" width="60" height="40" as="geometry"><mxRectangle width="60" height="40" as="alternateBounds"/></mxGeometry></mxCell><mxCell id="BA3E9fmX5IiNXpG_RXwM-78" value="" style="shape=partialRectangle;html=1;whiteSpace=wrap;connectable=0;overflow=hidden;fillColor=none;top=0;left=0;bottom=0;right=0;pointerEvents=1;fontFamily=Courier New;" parent="BA3E9fmX5IiNXpG_RXwM-70" vertex="1"><mxGeometry x="420" width="60" height="40" as="geometry"><mxRectangle width="60" height="40" as="alternateBounds"/></mxGeometry></mxCell><mxCell id="BA3E9fmX5IiNXpG_RXwM-79" value="" style="shape=partialRectangle;html=1;whiteSpace=wrap;connectable=0;overflow=hidden;fillColor=none;top=0;left=0;bottom=0;right=0;pointerEvents=1;fontFamily=Courier New;" parent="BA3E9fmX5IiNXpG_RXwM-70" vertex="1"><mxGeometry x="480" width="60" height="40" as="geometry"><mxRectangle width="60" height="40" as="alternateBounds"/></mxGeometry></mxCell><mxCell id="BA3E9fmX5IiNXpG_RXwM-80" value="" style="shape=partialRectangle;html=1;whiteSpace=wrap;connectable=0;overflow=hidden;fillColor=none;top=0;left=0;bottom=0;right=0;pointerEvents=1;fontFamily=Courier New;" parent="BA3E9fmX5IiNXpG_RXwM-70" vertex="1"><mxGeometry x="540" width="60" height="40" as="geometry"><mxRectangle width="60" height="40" as="alternateBounds"/></mxGeometry></mxCell><mxCell id="BA3E9fmX5IiNXpG_RXwM-81" value="" style="shape=partialRectangle;html=1;whiteSpace=wrap;connectable=0;overflow=hidden;fillColor=none;top=0;left=0;bottom=0;right=0;pointerEvents=1;fontFamily=Courier New;" parent="BA3E9fmX5IiNXpG_RXwM-70" vertex="1"><mxGeometry x="600" width="60" height="40" as="geometry"><mxRectangle width="60" height="40" as="alternateBounds"/></mxGeometry></mxCell><mxCell id="BA3E9fmX5IiNXpG_RXwM-82" value="" style="shape=partialRectangle;html=1;whiteSpace=wrap;connectable=0;overflow=hidden;fillColor=none;top=0;left=0;bottom=0;right=0;pointerEvents=1;fontFamily=Courier New;" parent="BA3E9fmX5IiNXpG_RXwM-70" vertex="1"><mxGeometry x="660" width="60" height="40" as="geometry"><mxRectangle width="60" height="40" as="alternateBounds"/></mxGeometry></mxCell><mxCell id="BA3E9fmX5IiNXpG_RXwM-83" value="" style="shape=partialRectangle;html=1;whiteSpace=wrap;connectable=0;overflow=hidden;fillColor=none;top=0;left=0;bottom=0;right=0;pointerEvents=1;fontFamily=Courier New;" parent="BA3E9fmX5IiNXpG_RXwM-70" vertex="1"><mxGeometry x="720" width="60" height="40" as="geometry"><mxRectangle width="60" height="40" as="alternateBounds"/></mxGeometry></mxCell><mxCell id="BA3E9fmX5IiNXpG_RXwM-84" value="" style="shape=partialRectangle;html=1;whiteSpace=wrap;connectable=0;overflow=hidden;fillColor=none;top=0;left=0;bottom=0;right=0;pointerEvents=1;fontFamily=Courier New;" parent="BA3E9fmX5IiNXpG_RXwM-70" vertex="1"><mxGeometry x="780" width="60" height="40" as="geometry"><mxRectangle width="60" height="40" as="alternateBounds"/></mxGeometry></mxCell><mxCell id="BA3E9fmX5IiNXpG_RXwM-85" value="" style="shape=partialRectangle;html=1;whiteSpace=wrap;connectable=0;overflow=hidden;fillColor=none;top=0;left=0;bottom=0;right=0;pointerEvents=1;fontFamily=Courier New;" parent="BA3E9fmX5IiNXpG_RXwM-70" vertex="1"><mxGeometry x="840" width="60" height="40" as="geometry"><mxRectangle width="60" height="40" as="alternateBounds"/></mxGeometry></mxCell><mxCell id="BA3E9fmX5IiNXpG_RXwM-86" value="" style="shape=partialRectangle;html=1;whiteSpace=wrap;connectable=0;overflow=hidden;fillColor=none;top=0;left=0;bottom=0;right=0;pointerEvents=1;fontFamily=Courier New;" parent="BA3E9fmX5IiNXpG_RXwM-70" vertex="1"><mxGeometry x="900" width="60" height="40" as="geometry"><mxRectangle width="60" height="40" as="alternateBounds"/></mxGeometry></mxCell><mxCell id="BA3E9fmX5IiNXpG_RXwM-87" value="(CALC_DATA_BEGIN) 0x402000" style="text;html=1;strokeColor=none;fillColor=none;align=center;verticalAlign=middle;whiteSpace=wrap;rounded=0;fontFamily=Courier New;" parent="1" vertex="1"><mxGeometry x="-180" y="170" width="190" height="30" as="geometry"/></mxCell><mxCell id="BA3E9fmX5IiNXpG_RXwM-88" value="0x402010" style="text;html=1;strokeColor=none;fillColor=none;align=center;verticalAlign=middle;whiteSpace=wrap;rounded=0;fontFamily=Courier New;" parent="1" vertex="1"><mxGeometry x="-58" y="210" width="70" height="30" as="geometry"/></mxCell><mxCell id="BA3E9fmX5IiNXpG_RXwM-89" value="0x402020" style="text;html=1;strokeColor=none;fillColor=none;align=center;verticalAlign=middle;whiteSpace=wrap;rounded=0;fontFamily=Courier New;" parent="1" vertex="1"><mxGeometry x="-60" y="245" width="70" height="30" as="geometry"/></mxCell><mxCell id="BA3E9fmX5IiNXpG_RXwM-90" value="0x402030" style="text;html=1;strokeColor=none;fillColor=none;align=center;verticalAlign=middle;whiteSpace=wrap;rounded=0;fontFamily=Courier New;" parent="1" vertex="1"><mxGeometry x="-60" y="290" width="70" height="30" as="geometry"/></mxCell><mxCell id="BA3E9fmX5IiNXpG_RXwM-91" value="0x402030" style="text;html=1;strokeColor=none;fillColor=none;align=center;verticalAlign=middle;whiteSpace=wrap;rounded=0;fontFamily=Courier New;" parent="1" vertex="1"><mxGeometry x="-60" y="330" width="70" height="30" as="geometry"/></mxCell><mxCell id="BA3E9fmX5IiNXpG_RXwM-92" value="" style="endArrow=baseDash;startArrow=baseDash;html=1;rounded=0;startFill=0;endFill=0;strokeWidth=3;" parent="1" edge="1"><mxGeometry width="50" height="50" relative="1" as="geometry"><mxPoint x="10" y="130" as="sourcePoint"/><mxPoint x="490" y="130" as="targetPoint"/></mxGeometry></mxCell><mxCell id="BA3E9fmX5IiNXpG_RXwM-93" value="Command Type 8 bytes" style="text;html=1;strokeColor=none;fillColor=none;align=center;verticalAlign=middle;whiteSpace=wrap;rounded=0;fontSize=15;fontStyle=1" parent="1" vertex="1"><mxGeometry x="150" y="100" width="230" height="30" as="geometry"/></mxCell><mxCell id="BA3E9fmX5IiNXpG_RXwM-94" value="" style="endArrow=baseDash;startArrow=baseDash;html=1;rounded=0;startFill=0;endFill=0;strokeWidth=3;" parent="1" edge="1"><mxGeometry width="50" height="50" relative="1" as="geometry"><mxPoint x="490" y="130" as="sourcePoint"/><mxPoint x="970" y="130" as="targetPoint"/></mxGeometry></mxCell><mxCell id="BA3E9fmX5IiNXpG_RXwM-95" value="Command Argument 8 bytes -- as single byte values in memory" style="text;html=1;strokeColor=none;fillColor=none;align=center;verticalAlign=middle;whiteSpace=wrap;rounded=0;fontSize=15;fontStyle=1" parent="1" vertex="1"><mxGeometry x="480" y="100" width="500" height="30" as="geometry"/></mxCell><mxCell id="BA3E9fmX5IiNXpG_RXwM-96" value="We have left locations that we don't really care about blank" style="text;html=1;strokeColor=none;fillColor=none;align=center;verticalAlign=middle;whiteSpace=wrap;rounded=0;fontSize=15;" parent="1" vertex="1"><mxGeometry x="260" y="370" width="440" height="30" as="geometry"/></mxCell><mxCell id="BA3E9fmX5IiNXpG_RXwM-97" value="Command Argument 8 bytes&lt;br&gt;as little endain 64 bit value&lt;br&gt;(Hex)" style="text;html=1;strokeColor=none;fillColor=none;align=center;verticalAlign=middle;whiteSpace=wrap;rounded=0;fontSize=15;fontStyle=1" parent="1" vertex="1"><mxGeometry x="961" y="100" width="280" height="70" as="geometry"/></mxCell><mxCell id="BA3E9fmX5IiNXpG_RXwM-99" value="0xffffffffffffffff" style="text;html=1;align=center;verticalAlign=middle;resizable=0;points=[];autosize=1;strokeColor=none;fillColor=none;fontSize=15;fontFamily=Courier New;" parent="1" vertex="1"><mxGeometry x="1000" y="170" width="190" height="30" as="geometry"/></mxCell><mxCell id="BA3E9fmX5IiNXpG_RXwM-100" value="0x000000000000000f" style="text;html=1;align=center;verticalAlign=middle;resizable=0;points=[];autosize=1;strokeColor=none;fillColor=none;fontSize=15;fontFamily=Courier New;" parent="1" vertex="1"><mxGeometry x="1000" y="210" width="190" height="30" as="geometry"/></mxCell><mxCell id="BA3E9fmX5IiNXpG_RXwM-102" value="0x0000000000000002" style="text;html=1;align=center;verticalAlign=middle;resizable=0;points=[];autosize=1;strokeColor=none;fillColor=none;fontSize=15;fontFamily=Courier New;" parent="1" vertex="1"><mxGeometry x="1000" y="250" width="190" height="30" as="geometry"/></mxCell><mxCell id="BA3E9fmX5IiNXpG_RXwM-104" value="0xfffffffffffffffd" style="text;html=1;align=center;verticalAlign=middle;resizable=0;points=[];autosize=1;strokeColor=none;fillColor=none;fontSize=15;fontFamily=Courier New;" parent="1" vertex="1"><mxGeometry x="1000" y="290" width="190" height="30" as="geometry"/></mxCell><mxCell id="BA3E9fmX5IiNXpG_RXwM-105" value="Command Argument as a 64 bit signed decimal integer (2 complement)" style="text;html=1;strokeColor=none;fillColor=none;align=center;verticalAlign=middle;whiteSpace=wrap;rounded=0;fontSize=15;fontStyle=1" parent="1" vertex="1"><mxGeometry x="1230" y="100" width="180" height="70" as="geometry"/></mxCell><mxCell id="BA3E9fmX5IiNXpG_RXwM-106" value="-1" style="text;html=1;align=center;verticalAlign=middle;resizable=0;points=[];autosize=1;strokeColor=none;fillColor=none;fontSize=15;fontFamily=Courier New;" parent="1" vertex="1"><mxGeometry x="1295" y="170" width="40" height="30" as="geometry"/></mxCell><mxCell id="BA3E9fmX5IiNXpG_RXwM-107" value="15" style="text;html=1;align=center;verticalAlign=middle;resizable=0;points=[];autosize=1;strokeColor=none;fillColor=none;fontSize=15;fontFamily=Courier New;" parent="1" vertex="1"><mxGeometry x="1295" y="210" width="40" height="30" as="geometry"/></mxCell><mxCell id="BA3E9fmX5IiNXpG_RXwM-108" value="2" style="text;html=1;align=center;verticalAlign=middle;resizable=0;points=[];autosize=1;strokeColor=none;fillColor=none;fontSize=15;fontFamily=Courier New;" parent="1" vertex="1"><mxGeometry x="1300" y="250" width="30" height="30" as="geometry"/></mxCell><mxCell id="BA3E9fmX5IiNXpG_RXwM-109" value="-3" style="text;html=1;align=center;verticalAlign=middle;resizable=0;points=[];autosize=1;strokeColor=none;fillColor=none;fontSize=15;fontFamily=Courier New;" parent="1" vertex="1"><mxGeometry x="1295" y="290" width="40" height="30" as="geometry"/></mxCell><mxCell id="BA3E9fmX5IiNXpG_RXwM-110" value="Command 0:&amp;nbsp; Update RAX with the bitwise OR of&amp;nbsp;&lt;span style=&quot;font-family: &amp;quot;Courier New&amp;quot;;&quot;&gt;0xffffffffffffffff&lt;/span&gt;" style="text;html=1;strokeColor=none;fillColor=none;align=center;verticalAlign=middle;whiteSpace=wrap;rounded=0;fontFamily=Helvetica;fontSize=15;fontStyle=1" parent="1" vertex="1"><mxGeometry x="45" y="440" width="521" height="30" as="geometry"/></mxCell><mxCell id="BA3E9fmX5IiNXpG_RXwM-112" value="Command 1:&amp;nbsp; Update RAX with the bitwise AND of&amp;nbsp;&lt;span style=&quot;font-family: &amp;quot;Courier New&amp;quot;;&quot;&gt;0x000000000000000f&lt;/span&gt;" style="text;html=1;strokeColor=none;fillColor=none;align=center;verticalAlign=middle;whiteSpace=wrap;rounded=0;fontFamily=Helvetica;fontSize=15;fontStyle=1" parent="1" vertex="1"><mxGeometry x="47" y="469" width="526" height="30" as="geometry"/></mxCell><mxCell id="BA3E9fmX5IiNXpG_RXwM-113" value="Command 2:&amp;nbsp; Apply sum operator updating RAX and SUM_POSITIVE with 2" style="text;html=1;strokeColor=none;fillColor=none;align=center;verticalAlign=middle;whiteSpace=wrap;rounded=0;fontFamily=Helvetica;fontSize=15;fontStyle=1" parent="1" vertex="1"><mxGeometry x="45" y="499" width="545" height="30" as="geometry"/></mxCell><mxCell id="BA3E9fmX5IiNXpG_RXwM-114" value="Command 3:&amp;nbsp; Apply sum operator updating RAX and SUM_NEGATIVE with -3" style="text;html=1;strokeColor=none;fillColor=none;align=center;verticalAlign=middle;whiteSpace=wrap;rounded=0;fontFamily=Helvetica;fontSize=15;fontStyle=1" parent="1" vertex="1"><mxGeometry x="45" y="529" width="558" height="30" as="geometry"/></mxCell><mxCell id="BA3E9fmX5IiNXpG_RXwM-115" value="Command 4:&amp;nbsp; Zero command means we are done!" style="text;html=1;strokeColor=none;fillColor=none;align=center;verticalAlign=middle;whiteSpace=wrap;rounded=0;fontFamily=Helvetica;fontSize=15;fontStyle=1" parent="1" vertex="1"><mxGeometry x="45" y="559" width="365" height="30" as="geometry"/></mxCell><mxCell id="BA3E9fmX5IiNXpG_RXwM-116" value="So this means that this command file is asking use to do the following:" style="text;html=1;strokeColor=none;fillColor=none;align=center;verticalAlign=middle;whiteSpace=wrap;rounded=0;fontFamily=Helvetica;fontSize=15;fontStyle=1" parent="1" vertex="1"><mxGeometry x="-16" y="410" width="570" height="30" as="geometry"/></mxCell></root></mxGraphModel></diagram></mxfile>